<?xml version="1.0" encoding="utf-8"?>
<!-- Generator: Adobe Illustrator 16.0.0, SVG Export Plug-In . SVG Version: 6.00 Build 0)  -->
<!DOCTYPE svg PUBLIC "-//W3C//DTD SVG 1.1//EN" "http://www.w3.org/Graphics/SVG/1.1/DTD/svg11.dtd">
<svg version="1.1" id="Layer_1" xmlns="http://www.w3.org/2000/svg" xmlns:xlink="http://www.w3.org/1999/xlink" x="0px" y="0px"
	 width="358.379px" height="41.88px" viewBox="0 0 358.379 41.88" enable-background="new 0 0 358.379 41.88" xml:space="preserve">
<g>
	<path d="M0,41.88V0.72h20.64c3.039,0,5.55,0.54,7.53,1.62s3.47,2.601,4.47,4.56c0.999,1.96,1.5,4.3,1.5,7.02
		c0,2.68-0.521,5.021-1.56,7.02c-1.041,2.001-2.59,3.551-4.65,4.65c-2.061,1.101-4.63,1.65-7.71,1.65H7.8v14.64H0z M7.8,20.58h12.18
		c2,0,3.549-0.59,4.65-1.771c1.1-1.179,1.65-2.81,1.65-4.89c0-1.4-0.24-2.58-0.72-3.54s-1.181-1.7-2.1-2.22
		c-0.92-0.519-2.081-0.78-3.48-0.78H7.8V20.58z"/>
	<path d="M40.2,41.88V0.72h21.66c3.039,0,5.559,0.521,7.56,1.56c2,1.041,3.5,2.52,4.5,4.44c1,1.92,1.5,4.181,1.5,6.78
		c0,2.68-0.6,5.05-1.8,7.11s-2.96,3.609-5.28,4.649l8.52,16.62h-8.52l-7.56-15.3H48v15.3H40.2z M48,20.04h13.26
		c2,0,3.54-0.579,4.62-1.74c1.08-1.16,1.62-2.76,1.62-4.8c0-1.32-0.24-2.43-0.72-3.33s-1.181-1.59-2.1-2.07
		c-0.921-0.48-2.061-0.72-3.42-0.72H48V20.04z"/>
	<path d="M101.82,42.6c-4.281,0-7.98-0.77-11.1-2.31c-3.12-1.539-5.51-3.89-7.17-7.05c-1.66-3.16-2.49-7.141-2.49-11.94
		c0-4.839,0.83-8.829,2.49-11.97c1.66-3.14,4.05-5.48,7.17-7.02C93.84,0.771,97.54,0,101.82,0c4.32,0,8.03,0.771,11.13,2.31
		c3.1,1.54,5.48,3.88,7.14,7.02c1.659,3.141,2.49,7.13,2.49,11.97c0,4.8-0.831,8.78-2.49,11.94c-1.66,3.16-4.041,5.511-7.14,7.05
		C109.85,41.83,106.14,42.6,101.82,42.6z M101.82,36c2.08,0,3.909-0.3,5.49-0.9c1.58-0.6,2.91-1.489,3.99-2.67
		c1.08-1.179,1.899-2.64,2.46-4.38c0.56-1.74,0.84-3.75,0.84-6.03V20.7c0-2.32-0.281-4.36-0.84-6.12
		c-0.561-1.76-1.38-3.23-2.46-4.41c-1.08-1.179-2.41-2.07-3.99-2.67c-1.581-0.6-3.411-0.9-5.49-0.9c-2.08,0-3.91,0.3-5.49,0.9
		c-1.581,0.6-2.91,1.491-3.99,2.67c-1.08,1.18-1.89,2.65-2.43,4.41c-0.54,1.76-0.81,3.8-0.81,6.12v1.319c0,2.28,0.27,4.29,0.81,6.03
		s1.35,3.201,2.43,4.38c1.08,1.181,2.409,2.07,3.99,2.67C97.91,35.7,99.74,36,101.82,36z"/>
	<path d="M138.42,41.88V7.44h-13.14V0.72h34.14v6.72h-13.2v34.44H138.42z"/>
	<path d="M182.88,42.6c-4.281,0-7.98-0.77-11.1-2.31c-3.12-1.539-5.51-3.89-7.17-7.05c-1.66-3.16-2.49-7.141-2.49-11.94
		c0-4.839,0.83-8.829,2.49-11.97c1.66-3.14,4.05-5.48,7.17-7.02c3.12-1.54,6.819-2.31,11.1-2.31c4.32,0,8.03,0.771,11.13,2.31
		c3.1,1.54,5.48,3.88,7.14,7.02c1.659,3.141,2.49,7.13,2.49,11.97c0,4.8-0.831,8.78-2.49,11.94c-1.66,3.16-4.041,5.511-7.14,7.05
		C190.91,41.83,187.2,42.6,182.88,42.6z M182.88,36c2.08,0,3.909-0.3,5.49-0.9c1.58-0.6,2.91-1.489,3.99-2.67
		c1.08-1.179,1.899-2.64,2.46-4.38c0.56-1.74,0.84-3.75,0.84-6.03V20.7c0-2.32-0.281-4.36-0.84-6.12
		c-0.561-1.76-1.38-3.23-2.46-4.41c-1.08-1.179-2.41-2.07-3.99-2.67c-1.581-0.6-3.411-0.9-5.49-0.9c-2.08,0-3.91,0.3-5.49,0.9
		c-1.581,0.6-2.91,1.491-3.99,2.67c-1.08,1.18-1.89,2.65-2.43,4.41c-0.54,1.76-0.81,3.8-0.81,6.12v1.319c0,2.28,0.27,4.29,0.81,6.03
		s1.35,3.201,2.43,4.38c1.08,1.181,2.409,2.07,3.99,2.67C178.97,35.7,180.8,36,182.88,36z"/>
</g>
<path d="M210.78,24.66v-6.72h15.18v6.72H210.78z"/>
<g>
	<path d="M253.859,42.6c-4.281,0-7.98-0.77-11.1-2.31c-3.12-1.539-5.51-3.89-7.17-7.05c-1.66-3.16-2.49-7.141-2.49-11.94
		c0-4.839,0.83-8.829,2.49-11.97c1.66-3.14,4.05-5.48,7.17-7.02c3.12-1.54,6.819-2.31,11.1-2.31c4.32,0,8.03,0.771,11.13,2.31
		c3.1,1.54,5.48,3.88,7.14,7.02c1.659,3.141,2.49,7.13,2.49,11.97c0,4.8-0.831,8.78-2.49,11.94c-1.66,3.16-4.041,5.511-7.14,7.05
		C261.889,41.83,258.179,42.6,253.859,42.6z M253.859,36c2.08,0,3.909-0.3,5.49-0.9c1.58-0.6,2.91-1.489,3.99-2.67
		c1.08-1.179,1.899-2.64,2.46-4.38c0.56-1.74,0.84-3.75,0.84-6.03V20.7c0-2.32-0.281-4.36-0.84-6.12
		c-0.561-1.76-1.38-3.23-2.46-4.41c-1.08-1.179-2.41-2.07-3.99-2.67c-1.581-0.6-3.411-0.9-5.49-0.9c-2.08,0-3.91,0.3-5.49,0.9
		c-1.581,0.6-2.91,1.491-3.99,2.67c-1.08,1.18-1.89,2.65-2.43,4.41c-0.54,1.76-0.81,3.8-0.81,6.12v1.319c0,2.28,0.27,4.29,0.81,6.03
		s1.35,3.201,2.43,4.38c1.08,1.181,2.409,2.07,3.99,2.67C249.949,35.7,251.779,36,253.859,36z"/>
	<path d="M281.879,41.88V0.72h7.801V19.8l18.238-19.08h9.541L301.499,17.4l16.262,24.48h-9.24l-12.301-19.02l-6.539,5.76v13.26
		H281.879z"/>
	<path d="M323.579,41.88V0.72h7.44l17.58,24.3c0.199,0.24,0.439,0.57,0.72,0.99c0.279,0.42,0.54,0.831,0.78,1.23
		c0.24,0.4,0.399,0.72,0.479,0.96h0.301c0-0.56,0-1.1,0-1.62c0-0.52,0-1.04,0-1.561V0.72h7.5v41.16H351L333.359,17.4
		c-0.32-0.48-0.689-1.07-1.109-1.77c-0.421-0.699-0.711-1.189-0.87-1.47h-0.301c0,0.521,0,1.05,0,1.59s0,1.09,0,1.65v24.48H323.579z
		"/>
</g>
</svg>
